<svg xmlns="http://www.w3.org/2000/svg" xmlns:xlink="http://www.w3.org/1999/xlink" viewBox="-10.547 -36.935 483.051 476.074" width="483.051" height="476.074">
    <defs>
        <linearGradient id="linear-gradient-16" x1="49.631" y1="349.621" x2="479.664" y2="132.802" gradientTransform="matrix(1, 0, 0, 1, 0, 0)" gradientUnits="userSpaceOnUse">
            <stop offset="0" stop-color="#3fdaff"></stop>
            <stop offset="1" stop-color="#5609fe"></stop>
        </linearGradient>
    </defs>
    <path class="cls-12" d="M241.526,476.886C108.348,476.886,0,370.103,0,238.849c0-37.926,9.276-75.664,26.826-109.134,2.648-5.048,8.947-7.025,14.069-4.417,5.122,2.609,7.129,8.817,4.482,13.866-16.253,30.998-24.495,64.538-24.495,99.686,0,119.906,98.98,217.456,220.644,217.456s220.643-97.55,220.643-217.456S363.189,21.393,241.526,21.393c-5.767,0-10.441-4.607-10.441-10.29s4.674-10.29,10.441-10.29c133.177,0,241.525,106.783,241.525,238.037s-108.348,238.037-241.525,238.037Z" style="fill: url(#linear-gradient-16);" transform="matrix(1, 0, 0, 1, -10.547256, -37.747589)"></path>
</svg>