<?xml version="1.0" encoding="UTF-8"?>
<svg xmlns="http://www.w3.org/2000/svg" xmlns:xlink="http://www.w3.org/1999/xlink" viewBox="0 0 345.71 114.21">
    <defs>
        <style>.e,.f{fill:#f4f4f4;}.f{opacity:.5;}.g{fill:url(#d);}</style>
        <linearGradient id="d" x1="-644.8" y1="-1014.82" x2="-553.65" y2="-1014.82" gradientTransform="translate(1207.37 341.9) rotate(-45)" gradientUnits="userSpaceOnUse">
            <stop offset="0" stop-color="#5000ff" />
            <stop offset=".08" stop-color="#5000ff" stop-opacity=".96" />
            <stop offset=".22" stop-color="#5000ff" stop-opacity=".87" />
            <stop offset=".4" stop-color="#5000ff" stop-opacity=".71" />
            <stop offset=".61" stop-color="#5000ff" stop-opacity=".49" />
            <stop offset=".84" stop-color="#5000ff" stop-opacity=".21" />
            <stop offset="1" stop-color="#5000ff" stop-opacity="0" />
        </linearGradient>
    </defs>
    <g id="a" />
    <g id="b">
        <g id="c">
            <g>
                <path class="e" d="M223.87,51.36v25.41h-4.82l-12.65-15.43v15.43h-5.8v-25.41h4.86l12.61,15.43v-15.43h5.8Z" />
                <path class="e" d="M228.01,51.36h5.87v25.41h-5.87v-25.41Z" />
                <path class="e" d="M262.87,51.36h5.87v25.41h-5.87v-25.41Z" />
                <path class="e" d="M295.37,65.86c.82,1.08,1.23,2.4,1.23,3.98,0,2.23-.86,3.94-2.59,5.14-1.73,1.2-4.25,1.8-7.56,1.8h-13.12v-25.41h12.4c3.09,0,5.47,.59,7.12,1.78s2.48,2.8,2.48,4.83c0,1.23-.3,2.34-.89,3.3s-1.42,1.73-2.48,2.29c1.45,.46,2.59,1.23,3.41,2.3Zm-16.2-10.07v5.99h5.83c1.45,0,2.55-.25,3.3-.76,.75-.51,1.12-1.26,1.12-2.25s-.37-1.74-1.12-2.23c-.75-.5-1.85-.74-3.3-.74h-5.83Zm10.35,15.79c.78-.51,1.18-1.3,1.18-2.36,0-2.11-1.56-3.16-4.68-3.16h-6.85v6.28h6.85c1.55,0,2.71-.25,3.5-.76Z" />
                <path class="e" d="M319.52,72.05v4.72h-19.64v-25.41h19.17v4.72h-13.34v5.52h11.78v4.57h-11.78v5.88h13.81Z" />
                <path class="e" d="M339.41,76.77l-4.89-7.08h-5.4v7.08h-5.87v-25.41h10.98c2.25,0,4.2,.38,5.85,1.13,1.66,.75,2.93,1.81,3.82,3.19,.89,1.38,1.34,3.01,1.34,4.9s-.45,3.52-1.36,4.88c-.91,1.37-2.19,2.41-3.86,3.14l5.69,8.17h-6.31Zm-1.49-19.48c-.92-.76-2.26-1.14-4.02-1.14h-4.78v8.86h4.78c1.76,0,3.1-.39,4.02-1.16,.92-.77,1.38-1.86,1.38-3.27s-.46-2.52-1.38-3.28Z" />
                <path class="e" d="M133.82,67c-1.13,2.58-3.7,4.38-6.69,4.38-4.03,0-7.3-3.28-7.3-7.32s3.27-7.32,7.3-7.32c2.99,0,5.56,1.8,6.69,4.38h6.14c-1.33-5.87-6.57-10.26-12.83-10.26-7.27,0-13.17,5.91-13.17,13.19s5.9,13.19,13.17,13.19c6.26,0,11.5-4.39,12.83-10.26h-6.14Z" />
                <g>
                    <rect class="e" x="238.09" y="51.17" width="21.15" height="5.7" />
                    <rect class="e" x="238.09" y="61.21" width="17.81" height="5.7" />
                    <rect class="e" x="238.09" y="51.73" width="5.96" height="25.04" />
                </g>
                <path class="e" d="M156.14,50.86c-7.28,0-13.18,5.91-13.18,13.21s5.9,13.21,13.18,13.21,13.18-5.91,13.18-13.21-5.9-13.21-13.18-13.21Zm0,20.51c-4.03,0-7.29-3.27-7.29-7.3s3.26-7.3,7.29-7.3,7.29,3.27,7.29,7.3-3.26,7.3-7.29,7.3Z" />
                <g>
                    <path class="f" d="M0,64.48l49.64,49.73,49.64-49.73L49.64,14.76,0,64.48Zm81.16,0l-31.51,31.57-31.51-31.57,31.51-31.57,31.51,31.57Z" />
                    <polygon class="g" points="49.64 96.05 114.01 31.57 82.5 0 18.13 64.48 49.64 96.05" />
                    <polygon class="e" points="49.64 96.05 18.13 64.48 58.71 23.84 49.64 14.76 0 64.48 49.64 114.21 99.28 64.48 90.22 55.4 49.64 96.05" />
                </g>
                <path class="e" d="M192.51,62.16h-4.96v5.55h4.23c-1.26,2.18-3.59,3.66-6.28,3.66-4.03,0-7.29-3.27-7.29-7.3s3.26-7.3,7.29-7.3c2.54,0,4.78,1.31,6.08,3.29l4.37-4.01c-2.41-3.15-6.19-5.18-10.46-5.18-7.28,0-13.18,5.91-13.18,13.21s5.9,13.21,13.18,13.21c4.6,0,8.64-2.36,11-5.94v-9.17h-3.99Z" />
                <g>
                    <path class="e" d="M122.02,87.53c.87,.73,1.3,1.73,1.3,3.01s-.43,2.28-1.3,3c-.87,.72-2.06,1.09-3.59,1.09h-3.21v3.78h-1.26v-11.98h4.48c1.53,0,2.72,.37,3.59,1.1Zm-.91,5.21c.63-.52,.94-1.25,.94-2.2s-.31-1.71-.94-2.23c-.63-.52-1.53-.78-2.72-.78h-3.18v5.99h3.18c1.18,0,2.09-.26,2.72-.78Z" />
                    <path class="e" d="M134.49,89.41v9h-1.16v-1.64c-.32,.55-.76,.97-1.32,1.28s-1.2,.45-1.91,.45c-1.17,0-2.1-.33-2.78-.98-.68-.66-1.02-1.62-1.02-2.88v-5.22h1.21v5.1c0,.95,.23,1.67,.7,2.16,.47,.49,1.13,.74,2,.74,.94,0,1.69-.29,2.24-.86,.55-.58,.82-1.38,.82-2.4v-4.72h1.21Z" />
                    <path class="e" d="M140.76,89.81c.56-.31,1.26-.46,2.09-.46v1.18l-.29-.02c-.95,0-1.69,.29-2.22,.87-.54,.58-.8,1.4-.8,2.45v4.59h-1.21v-9h1.16v1.76c.28-.6,.71-1.06,1.27-1.37Z" />
                    <path class="e" d="M153.2,94.29h-7.52c.07,.94,.43,1.69,1.08,2.27s1.47,.86,2.46,.86c.56,0,1.07-.1,1.54-.3,.47-.2,.87-.49,1.21-.88l.68,.79c-.4,.48-.9,.84-1.49,1.1-.6,.25-1.26,.38-1.97,.38-.92,0-1.74-.2-2.45-.59-.71-.39-1.27-.94-1.67-1.63-.4-.7-.6-1.48-.6-2.36s.19-1.67,.57-2.36c.38-.7,.91-1.24,1.57-1.63,.67-.39,1.42-.58,2.25-.58s1.58,.19,2.24,.58c.66,.39,1.18,.93,1.55,1.62,.38,.69,.56,1.48,.56,2.37l-.02,.38Zm-6.52-3.07c-.59,.55-.92,1.27-1,2.17h6.37c-.08-.89-.41-1.61-1-2.17-.59-.55-1.32-.83-2.2-.83s-1.59,.28-2.18,.83Z" />
                    <path class="e" d="M169.35,87.53c.87,.73,1.3,1.73,1.3,3.01s-.43,2.28-1.3,3c-.87,.72-2.06,1.09-3.59,1.09h-3.21v3.78h-1.26v-11.98h4.48c1.53,0,2.72,.37,3.59,1.1Zm-.91,5.21c.63-.52,.94-1.25,.94-2.2s-.31-1.71-.94-2.23c-.63-.52-1.53-.78-2.72-.78h-3.18v5.99h3.18c1.18,0,2.09-.26,2.72-.78Z" />
                    <path class="e" d="M180.99,90.33c.67,.66,1,1.61,1,2.87v5.22h-1.21v-5.1c0-.94-.23-1.65-.7-2.14-.47-.49-1.13-.74-2-.74-.97,0-1.73,.29-2.3,.86-.56,.58-.85,1.37-.85,2.39v4.72h-1.21v-12.7h1.21v5.27c.33-.52,.79-.93,1.37-1.22,.58-.28,1.25-.43,2-.43,1.13,0,2.02,.33,2.69,.98Z" />
                    <path class="e" d="M187.08,97.91c-.69-.39-1.24-.94-1.64-1.63-.4-.7-.6-1.48-.6-2.36s.2-1.67,.6-2.36c.4-.7,.94-1.24,1.64-1.63,.69-.39,1.48-.58,2.34-.58s1.65,.19,2.34,.58c.69,.39,1.24,.93,1.63,1.63,.39,.7,.59,1.48,.59,2.36s-.2,1.67-.59,2.36c-.39,.7-.94,1.24-1.63,1.63-.69,.39-1.48,.59-2.34,.59s-1.65-.2-2.34-.59Zm4.06-.92c.51-.29,.9-.7,1.19-1.24,.28-.54,.43-1.15,.43-1.83s-.14-1.29-.43-1.83c-.29-.54-.68-.95-1.19-1.24-.51-.29-1.08-.44-1.72-.44s-1.21,.15-1.72,.44c-.51,.29-.91,.7-1.2,1.24s-.44,1.15-.44,1.83,.15,1.3,.44,1.83,.69,.95,1.2,1.24c.51,.29,1.08,.44,1.72,.44s1.21-.15,1.72-.44Z" />
                    <path class="e" d="M201.62,97.87c-.23,.21-.51,.36-.85,.47-.34,.11-.69,.16-1.05,.16-.84,0-1.49-.23-1.95-.68s-.68-1.1-.68-1.93v-5.44h-1.61v-1.03h1.61v-1.97h1.21v1.97h2.73v1.03h-2.73v5.37c0,.54,.13,.94,.4,1.22,.27,.28,.65,.42,1.15,.42,.25,0,.49-.04,.73-.12,.23-.08,.44-.19,.61-.34l.43,.87Z" />
                    <path class="e" d="M205.26,97.91c-.69-.39-1.24-.94-1.64-1.63-.4-.7-.6-1.48-.6-2.36s.2-1.67,.6-2.36c.4-.7,.94-1.24,1.64-1.63,.69-.39,1.48-.58,2.34-.58s1.65,.19,2.34,.58c.69,.39,1.24,.93,1.63,1.63,.39,.7,.59,1.48,.59,2.36s-.2,1.67-.59,2.36c-.39,.7-.94,1.24-1.63,1.63-.69,.39-1.48,.59-2.34,.59s-1.65-.2-2.34-.59Zm4.06-.92c.51-.29,.9-.7,1.19-1.24,.28-.54,.43-1.15,.43-1.83s-.14-1.29-.43-1.83c-.29-.54-.68-.95-1.19-1.24-.51-.29-1.08-.44-1.72-.44s-1.21,.15-1.72,.44c-.51,.29-.91,.7-1.2,1.24s-.44,1.15-.44,1.83,.15,1.3,.44,1.83,.69,.95,1.2,1.24c.51,.29,1.08,.44,1.72,.44s1.21-.15,1.72-.44Z" />
                    <path class="e" d="M222.34,90.33c.67,.66,1,1.61,1,2.87v5.22h-1.21v-5.1c0-.94-.23-1.65-.7-2.14-.47-.49-1.13-.74-2-.74-.97,0-1.73,.29-2.3,.86-.56,.58-.85,1.37-.85,2.39v4.72h-1.21v-9h1.16v1.66c.33-.55,.79-.97,1.38-1.27,.59-.3,1.27-.45,2.04-.45,1.13,0,2.02,.33,2.69,.98Z" />
                    <path class="e" d="M227.04,87.19c-.17-.17-.26-.38-.26-.62s.08-.43,.26-.6c.17-.17,.38-.26,.63-.26s.46,.08,.63,.25,.26,.36,.26,.59c0,.25-.09,.46-.26,.63-.17,.17-.38,.26-.63,.26s-.46-.09-.63-.26Zm.02,2.22h1.21v9h-1.21v-9Z" />
                    <path class="e" d="M233.42,97.92c-.7-.39-1.25-.93-1.65-1.63-.4-.7-.6-1.49-.6-2.37s.2-1.67,.6-2.36c.4-.7,.95-1.24,1.65-1.63,.7-.39,1.49-.58,2.38-.58,.78,0,1.47,.15,2.08,.45,.61,.3,1.09,.74,1.44,1.33l-.91,.62c-.3-.45-.67-.78-1.13-1s-.95-.33-1.49-.33c-.65,0-1.23,.15-1.75,.44s-.92,.7-1.21,1.24-.44,1.15-.44,1.83,.15,1.31,.44,1.84,.69,.94,1.21,1.23,1.1,.44,1.75,.44c.54,0,1.03-.11,1.49-.33,.46-.22,.83-.55,1.13-.99l.91,.62c-.35,.58-.84,1.02-1.45,1.33s-1.3,.45-2.07,.45c-.89,0-1.68-.19-2.38-.58Z" />
                    <path class="e" d="M249.28,97.73c-.95-.52-1.7-1.25-2.24-2.18-.54-.93-.81-1.97-.81-3.12s.27-2.19,.81-3.12c.54-.93,1.29-1.66,2.25-2.18,.96-.52,2.03-.79,3.21-.79,.89,0,1.71,.15,2.46,.45,.75,.3,1.39,.73,1.91,1.3l-.8,.8c-.93-.95-2.11-1.42-3.54-1.42-.94,0-1.8,.22-2.58,.65-.78,.43-1.38,1.03-1.82,1.78s-.66,1.6-.66,2.53,.22,1.78,.66,2.53c.44,.75,1.05,1.35,1.82,1.78,.77,.43,1.63,.65,2.58,.65,1.44,0,2.61-.48,3.54-1.44l.8,.8c-.52,.57-1.16,1.01-1.92,1.31s-1.58,.45-2.47,.45c-1.18,0-2.25-.26-3.2-.79Z" />
                    <path class="e" d="M260.68,97.91c-.69-.39-1.24-.94-1.64-1.63-.4-.7-.6-1.48-.6-2.36s.2-1.67,.6-2.36c.4-.7,.94-1.24,1.64-1.63,.69-.39,1.48-.58,2.34-.58s1.65,.19,2.34,.58c.69,.39,1.24,.93,1.63,1.63,.39,.7,.59,1.48,.59,2.36s-.2,1.67-.59,2.36c-.39,.7-.94,1.24-1.63,1.63-.69,.39-1.48,.59-2.34,.59s-1.65-.2-2.34-.59Zm4.06-.92c.51-.29,.9-.7,1.19-1.24,.28-.54,.43-1.15,.43-1.83s-.14-1.29-.43-1.83c-.29-.54-.68-.95-1.19-1.24-.51-.29-1.08-.44-1.72-.44s-1.21,.15-1.72,.44c-.51,.29-.91,.7-1.2,1.24s-.44,1.15-.44,1.83,.15,1.3,.44,1.83,.69,.95,1.2,1.24c.51,.29,1.08,.44,1.72,.44s1.21-.15,1.72-.44Z" />
                    <path class="e" d="M284.35,90.32c.64,.65,.97,1.61,.97,2.88v5.22h-1.21v-5.1c0-.94-.23-1.65-.67-2.14s-1.08-.74-1.91-.74c-.93,0-1.67,.29-2.2,.86-.54,.58-.8,1.37-.8,2.39v4.72h-1.21v-5.1c0-.94-.23-1.65-.67-2.14s-1.09-.74-1.92-.74c-.92,0-1.65,.29-2.2,.86-.54,.58-.81,1.37-.81,2.39v4.72h-1.21v-9h1.16v1.64c.32-.55,.76-.97,1.33-1.27,.57-.3,1.22-.45,1.96-.45s1.4,.16,1.96,.48c.55,.32,.96,.79,1.24,1.42,.33-.59,.81-1.06,1.43-1.39,.62-.34,1.33-.51,2.13-.51,1.13,0,2.01,.33,2.66,.98Z" />
                    <path class="e" d="M295.96,89.92c.68,.38,1.22,.92,1.61,1.62,.39,.7,.58,1.49,.58,2.38s-.19,1.7-.58,2.4c-.39,.7-.92,1.24-1.6,1.62-.68,.38-1.44,.57-2.3,.57-.73,0-1.39-.15-1.97-.45-.59-.3-1.07-.74-1.44-1.33v5.01h-1.21v-12.32h1.16v1.78c.36-.59,.85-1.05,1.44-1.37,.6-.32,1.27-.48,2.02-.48,.84,0,1.61,.19,2.29,.57Zm-.67,7.07c.51-.29,.91-.7,1.2-1.24s.44-1.15,.44-1.83-.14-1.29-.44-1.82-.69-.94-1.2-1.24c-.51-.3-1.08-.45-1.71-.45s-1.21,.15-1.72,.45c-.51,.3-.91,.71-1.2,1.24s-.44,1.14-.44,1.82,.15,1.3,.44,1.83,.69,.95,1.2,1.24c.51,.29,1.08,.44,1.72,.44s1.2-.15,1.71-.44Z" />
                    <path class="e" d="M309.15,89.41v9h-1.16v-1.64c-.32,.55-.76,.97-1.32,1.28s-1.2,.45-1.91,.45c-1.17,0-2.1-.33-2.78-.98-.68-.66-1.02-1.62-1.02-2.88v-5.22h1.21v5.1c0,.95,.23,1.67,.7,2.16,.47,.49,1.13,.74,2,.74,.94,0,1.69-.29,2.24-.86,.55-.58,.82-1.38,.82-2.4v-4.72h1.21Z" />
                    <path class="e" d="M317.71,97.87c-.23,.21-.51,.36-.85,.47-.34,.11-.69,.16-1.05,.16-.84,0-1.49-.23-1.95-.68s-.68-1.1-.68-1.93v-5.44h-1.61v-1.03h1.61v-1.97h1.21v1.97h2.73v1.03h-2.73v5.37c0,.54,.13,.94,.4,1.22,.27,.28,.65,.42,1.15,.42,.25,0,.49-.04,.73-.12,.23-.08,.44-.19,.61-.34l.43,.87Z" />
                    <path class="e" d="M320.33,87.19c-.17-.17-.26-.38-.26-.62s.08-.43,.26-.6c.17-.17,.38-.26,.63-.26s.46,.08,.63,.25,.26,.36,.26,.59c0,.25-.09,.46-.26,.63-.17,.17-.38,.26-.63,.26s-.46-.09-.63-.26Zm.02,2.22h1.21v9h-1.21v-9Z" />
                    <path class="e" d="M332.64,90.33c.67,.66,1,1.61,1,2.87v5.22h-1.21v-5.1c0-.94-.23-1.65-.7-2.14-.47-.49-1.13-.74-2-.74-.97,0-1.73,.29-2.3,.86-.56,.58-.85,1.37-.85,2.39v4.72h-1.21v-9h1.16v1.66c.33-.55,.79-.97,1.38-1.27,.59-.3,1.27-.45,2.04-.45,1.13,0,2.02,.33,2.69,.98Z" />
                    <path class="e" d="M345.71,89.41v7.91c0,1.53-.37,2.66-1.12,3.4-.75,.74-1.87,1.1-3.37,1.1-.83,0-1.62-.12-2.37-.37-.75-.25-1.35-.58-1.82-1.02l.62-.92c.43,.39,.96,.69,1.58,.91,.62,.22,1.27,.33,1.96,.33,1.14,0,1.98-.27,2.51-.8,.54-.53,.8-1.35,.8-2.47v-1.15c-.38,.57-.87,1-1.48,1.3-.61,.3-1.28,.44-2.02,.44-.84,0-1.61-.18-2.3-.56-.69-.37-1.23-.89-1.62-1.56-.39-.67-.59-1.42-.59-2.27s.2-1.6,.59-2.26c.39-.66,.93-1.18,1.61-1.54,.68-.36,1.45-.55,2.31-.55,.76,0,1.45,.15,2.07,.46,.62,.31,1.11,.75,1.49,1.34v-1.73h1.16Zm-2.84,7.16c.52-.28,.93-.67,1.22-1.17,.29-.5,.44-1.07,.44-1.71s-.15-1.21-.44-1.7c-.29-.5-.7-.88-1.21-1.16-.52-.28-1.11-.42-1.77-.42s-1.23,.14-1.75,.41c-.52,.27-.92,.66-1.21,1.16-.29,.5-.44,1.07-.44,1.71s.15,1.21,.44,1.71,.69,.89,1.21,1.17,1.1,.42,1.75,.42,1.24-.14,1.76-.42Z" />
                </g>
            </g>
        </g>
    </g>
</svg>